<?xml version="1.0" standalone="no"?>
<!DOCTYPE svg PUBLIC "-//W3C//DTD SVG 20010904//EN"
 "http://www.w3.org/TR/2001/REC-SVG-20010904/DTD/svg10.dtd">
<svg version="1.0" xmlns="http://www.w3.org/2000/svg"
 width="400.000000pt" height="400.000000pt" viewBox="0 0 400.000000 400.000000"
 preserveAspectRatio="xMidYMid meet">
<metadata>
Created by potrace 1.14, written by Peter Selinger 2001-2017
</metadata>
<g transform="translate(0.000000,400.000000) scale(0.100000,-0.100000)"
fill="#000000" stroke="none">
<path d="M1055 2673 c-46 -24 -76 -54 -96 -98 -33 -72 -24 -122 38 -212 l36
-53 1007 0 c628 0 1028 4 1061 10 81 15 189 72 241 127 24 27 64 82 88 123 24
41 50 85 58 98 l14 22 -1208 0 c-1083 -1 -1212 -2 -1239 -17z"/>
<path d="M603 2171 c-82 -38 -127 -155 -88 -232 9 -19 54 -96 98 -172 67 -113
84 -135 92 -121 37 63 89 115 140 139 50 25 70 28 198 34 l143 6 -125 183
-125 182 -146 0 c-121 0 -152 -4 -187 -19z"/>
<path d="M1090 2185 c0 -3 55 -86 122 -185 l122 -180 639 0 638 0 57 27 c80
39 168 130 230 239 29 50 52 94 52 98 0 3 -318 6 -707 6 -667 0 -710 -2 -749
-19 -53 -24 -109 -74 -124 -111 -7 -16 -16 -30 -19 -30 -4 0 -34 36 -66 80
l-59 80 -68 0 c-37 0 -68 -2 -68 -5z"/>
<path d="M1483 1568 c47 -68 104 -151 128 -186 l44 -63 205 3 c187 3 210 6
262 27 96 39 163 102 234 221 35 58 64 108 64 113 0 4 -230 7 -511 7 l-510 0
84 -122z"/>
</g>
</svg>
